G04 #@! TF.FileFunction,Soldermask,Bot*
%FSLAX46Y46*%
G04 Gerber Fmt 4.6, Leading zero omitted, Abs format (unit mm)*
G04 Created by KiCad (PCBNEW 4.0.5) date Saturday, March 04, 2017 'PMt' 10:22:20 PM*
%MOMM*%
%LPD*%
G01*
G04 APERTURE LIST*
%ADD10C,0.100000*%
%ADD11R,2.178000X1.700000*%
%ADD12O,2.178000X1.700000*%
%ADD13C,1.924000*%
%ADD14R,2.432000X2.432000*%
%ADD15O,2.432000X2.432000*%
G04 APERTURE END LIST*
D10*
D11*
X97028000Y-90424000D03*
D12*
X97028000Y-92964000D03*
X97028000Y-95504000D03*
X97028000Y-98044000D03*
X104648000Y-98044000D03*
X104648000Y-95504000D03*
X104648000Y-92964000D03*
X104648000Y-90424000D03*
D13*
X77680000Y-49330000D03*
X77680000Y-51870000D03*
X77680000Y-54410000D03*
X77680000Y-56950000D03*
X77680000Y-59490000D03*
X77680000Y-62030000D03*
X77680000Y-64570000D03*
X77680000Y-67110000D03*
X77680000Y-69650000D03*
X77680000Y-72190000D03*
X77680000Y-74730000D03*
X77680000Y-77270000D03*
X101810000Y-77270000D03*
X101810000Y-74730000D03*
X101810000Y-72190000D03*
X101810000Y-69650000D03*
X101810000Y-67110000D03*
X101810000Y-64570000D03*
X101810000Y-62030000D03*
X101810000Y-59490000D03*
X101810000Y-56950000D03*
X101810000Y-54410000D03*
X101810000Y-51870000D03*
X101810000Y-49330000D03*
D14*
X88646000Y-98552000D03*
D15*
X91186000Y-98552000D03*
D11*
X54250000Y-49700000D03*
D12*
X54250000Y-52240000D03*
X54250000Y-54780000D03*
X54250000Y-57320000D03*
X54250000Y-59860000D03*
X54250000Y-62400000D03*
X54250000Y-64940000D03*
X54250000Y-67480000D03*
X54250000Y-70020000D03*
X54250000Y-72560000D03*
X54250000Y-75100000D03*
X54250000Y-77640000D03*
X54250000Y-80180000D03*
X54250000Y-82720000D03*
X54250000Y-85260000D03*
X54250000Y-87800000D03*
X54250000Y-90340000D03*
X54250000Y-92880000D03*
X54250000Y-95420000D03*
X54250000Y-97960000D03*
X69490000Y-97960000D03*
X69490000Y-95420000D03*
X69490000Y-92880000D03*
X69490000Y-90340000D03*
X69490000Y-87800000D03*
X69490000Y-85260000D03*
X69490000Y-82720000D03*
X69490000Y-80180000D03*
X69490000Y-77640000D03*
X69490000Y-75100000D03*
X69490000Y-72560000D03*
X69490000Y-70020000D03*
X69490000Y-67480000D03*
X69490000Y-64940000D03*
X69490000Y-62400000D03*
X69490000Y-59860000D03*
X69490000Y-57320000D03*
X69490000Y-54780000D03*
X69490000Y-52240000D03*
X69490000Y-49700000D03*
M02*
