G04 #@! TF.FileFunction,Copper,L2,Bot,Signal*
%FSLAX46Y46*%
G04 Gerber Fmt 4.6, Leading zero omitted, Abs format (unit mm)*
G04 Created by KiCad (PCBNEW 4.0.5) date Saturday, March 04, 2017 'PMt' 10:22:20 PM*
%MOMM*%
%LPD*%
G01*
G04 APERTURE LIST*
%ADD10C,0.100000*%
%ADD11R,1.778000X1.300000*%
%ADD12O,1.778000X1.300000*%
%ADD13C,1.524000*%
%ADD14R,2.032000X2.032000*%
%ADD15O,2.032000X2.032000*%
%ADD16C,0.600000*%
%ADD17C,0.250000*%
%ADD18C,0.254000*%
G04 APERTURE END LIST*
D10*
D11*
X97028000Y-90424000D03*
D12*
X97028000Y-92964000D03*
X97028000Y-95504000D03*
X97028000Y-98044000D03*
X104648000Y-98044000D03*
X104648000Y-95504000D03*
X104648000Y-92964000D03*
X104648000Y-90424000D03*
D13*
X77680000Y-49330000D03*
X77680000Y-51870000D03*
X77680000Y-54410000D03*
X77680000Y-56950000D03*
X77680000Y-59490000D03*
X77680000Y-62030000D03*
X77680000Y-64570000D03*
X77680000Y-67110000D03*
X77680000Y-69650000D03*
X77680000Y-72190000D03*
X77680000Y-74730000D03*
X77680000Y-77270000D03*
X101810000Y-77270000D03*
X101810000Y-74730000D03*
X101810000Y-72190000D03*
X101810000Y-69650000D03*
X101810000Y-67110000D03*
X101810000Y-64570000D03*
X101810000Y-62030000D03*
X101810000Y-59490000D03*
X101810000Y-56950000D03*
X101810000Y-54410000D03*
X101810000Y-51870000D03*
X101810000Y-49330000D03*
D14*
X88646000Y-98552000D03*
D15*
X91186000Y-98552000D03*
D11*
X54250000Y-49700000D03*
D12*
X54250000Y-52240000D03*
X54250000Y-54780000D03*
X54250000Y-57320000D03*
X54250000Y-59860000D03*
X54250000Y-62400000D03*
X54250000Y-64940000D03*
X54250000Y-67480000D03*
X54250000Y-70020000D03*
X54250000Y-72560000D03*
X54250000Y-75100000D03*
X54250000Y-77640000D03*
X54250000Y-80180000D03*
X54250000Y-82720000D03*
X54250000Y-85260000D03*
X54250000Y-87800000D03*
X54250000Y-90340000D03*
X54250000Y-92880000D03*
X54250000Y-95420000D03*
X54250000Y-97960000D03*
X69490000Y-97960000D03*
X69490000Y-95420000D03*
X69490000Y-92880000D03*
X69490000Y-90340000D03*
X69490000Y-87800000D03*
X69490000Y-85260000D03*
X69490000Y-82720000D03*
X69490000Y-80180000D03*
X69490000Y-77640000D03*
X69490000Y-75100000D03*
X69490000Y-72560000D03*
X69490000Y-70020000D03*
X69490000Y-67480000D03*
X69490000Y-64940000D03*
X69490000Y-62400000D03*
X69490000Y-59860000D03*
X69490000Y-57320000D03*
X69490000Y-54780000D03*
X69490000Y-52240000D03*
X69490000Y-49700000D03*
D16*
X86303200Y-70135100D03*
X87397100Y-69532300D03*
X66933100Y-91796000D03*
X67228300Y-94207800D03*
X68605500Y-58590000D03*
X78703300Y-99053000D03*
X79323800Y-80885600D03*
X74018000Y-77328900D03*
X87706200Y-74217200D03*
X78756800Y-65953000D03*
X80805000Y-98596000D03*
X73475844Y-83525236D03*
X76317900Y-93337800D03*
X65257000Y-70606900D03*
X77273000Y-97868700D03*
X77916600Y-97175900D03*
X75284700Y-71652500D03*
X77487900Y-96407600D03*
X77941400Y-80015900D03*
X80075700Y-94794600D03*
X75586700Y-80363800D03*
X77999500Y-95661300D03*
X74012645Y-81168548D03*
X77386100Y-93518400D03*
X85510300Y-96149700D03*
X86562200Y-95016700D03*
X85368000Y-97574800D03*
X83675500Y-98811800D03*
X96202400Y-75179000D03*
D17*
X96540400Y-91988700D02*
X97028000Y-91988700D01*
X86303200Y-81751500D02*
X96540400Y-91988700D01*
X86303200Y-70135100D02*
X86303200Y-81751500D01*
X97028000Y-92964000D02*
X97028000Y-91988700D01*
X96052700Y-96479300D02*
X97028000Y-96479300D01*
X92321000Y-100211000D02*
X96052700Y-96479300D01*
X61388300Y-100211000D02*
X92321000Y-100211000D01*
X55327300Y-94150000D02*
X61388300Y-100211000D01*
X53816700Y-94150000D02*
X55327300Y-94150000D01*
X52572700Y-92906000D02*
X53816700Y-94150000D01*
X52572700Y-80210300D02*
X52572700Y-92906000D01*
X53873000Y-78910000D02*
X52572700Y-80210300D01*
X54645800Y-78910000D02*
X53873000Y-78910000D01*
X55479400Y-78076400D02*
X54645800Y-78910000D01*
X55479400Y-72102800D02*
X55479400Y-78076400D01*
X54371900Y-70995300D02*
X55479400Y-72102800D01*
X54250000Y-70995300D02*
X54371900Y-70995300D01*
X54250000Y-70020000D02*
X54250000Y-70995300D01*
X97028000Y-95504000D02*
X97028000Y-96479300D01*
X104648000Y-98044000D02*
X104648000Y-97068700D01*
X104526100Y-97068700D02*
X104648000Y-97068700D01*
X103083400Y-95626000D02*
X104526100Y-97068700D01*
X103083400Y-94420200D02*
X103083400Y-95626000D01*
X87080900Y-78417700D02*
X103083400Y-94420200D01*
X87080900Y-69848500D02*
X87080900Y-78417700D01*
X87397100Y-69532300D02*
X87080900Y-69848500D01*
X69583300Y-63964700D02*
X69490000Y-63964700D01*
X70709900Y-62838100D02*
X69583300Y-63964700D01*
X70709900Y-59393300D02*
X70709900Y-62838100D01*
X69611900Y-58295300D02*
X70709900Y-59393300D01*
X69490000Y-58295300D02*
X69611900Y-58295300D01*
X69490000Y-57320000D02*
X69490000Y-58295300D01*
X69490000Y-64940000D02*
X69490000Y-63964700D01*
X54128100Y-50675300D02*
X54250000Y-50675300D01*
X52978800Y-51824600D02*
X54128100Y-50675300D01*
X52978800Y-57735400D02*
X52978800Y-51824600D01*
X54128100Y-58884700D02*
X52978800Y-57735400D01*
X54250000Y-58884700D02*
X54128100Y-58884700D01*
X54250000Y-59860000D02*
X54250000Y-58884700D01*
X54250000Y-49700000D02*
X54250000Y-50675300D01*
X69583300Y-56344700D02*
X69490000Y-56344700D01*
X70709900Y-55218100D02*
X69583300Y-56344700D01*
X70709900Y-54313300D02*
X70709900Y-55218100D01*
X69611900Y-53215300D02*
X70709900Y-54313300D01*
X69490000Y-53215300D02*
X69611900Y-53215300D01*
X69490000Y-52240000D02*
X69490000Y-53215300D01*
X69490000Y-57320000D02*
X69490000Y-56344700D01*
X54128100Y-81155300D02*
X54250000Y-81155300D01*
X53035600Y-82247800D02*
X54128100Y-81155300D01*
X53035600Y-83192200D02*
X53035600Y-82247800D01*
X54128100Y-84284700D02*
X53035600Y-83192200D01*
X54250000Y-84284700D02*
X54128100Y-84284700D01*
X54250000Y-85260000D02*
X54250000Y-84284700D01*
X54250000Y-80180000D02*
X54250000Y-81155300D01*
X54156700Y-65915300D02*
X54250000Y-65915300D01*
X53030100Y-67041900D02*
X54156700Y-65915300D01*
X53030100Y-73026700D02*
X53030100Y-67041900D01*
X54128100Y-74124700D02*
X53030100Y-73026700D01*
X54250000Y-74124700D02*
X54128100Y-74124700D01*
X54250000Y-75100000D02*
X54250000Y-74124700D01*
X54250000Y-64940000D02*
X54250000Y-65915300D01*
X86137200Y-99719500D02*
X87304700Y-98552000D01*
X63629500Y-99719500D02*
X86137200Y-99719500D01*
X55225300Y-91315300D02*
X63629500Y-99719500D01*
X54250000Y-91315300D02*
X55225300Y-91315300D01*
X54250000Y-90340000D02*
X54250000Y-91315300D01*
X88646000Y-98552000D02*
X87304700Y-98552000D01*
X66871100Y-91734000D02*
X66933100Y-91796000D01*
X66871100Y-68403300D02*
X66871100Y-91734000D01*
X69064400Y-66210000D02*
X66871100Y-68403300D01*
X69853400Y-66210000D02*
X69064400Y-66210000D01*
X71361000Y-64702400D02*
X69853400Y-66210000D01*
X71361000Y-58189000D02*
X71361000Y-64702400D01*
X77680000Y-51870000D02*
X71361000Y-58189000D01*
X69490000Y-95420000D02*
X69490000Y-94444700D01*
X78775000Y-50425000D02*
X77680000Y-49330000D01*
X78775000Y-52365500D02*
X78775000Y-50425000D01*
X78179100Y-52961400D02*
X78775000Y-52365500D01*
X77590800Y-52961400D02*
X78179100Y-52961400D01*
X72149300Y-58402900D02*
X77590800Y-52961400D01*
X72149300Y-79215300D02*
X72149300Y-58402900D01*
X69914600Y-81450000D02*
X72149300Y-79215300D01*
X69124700Y-81450000D02*
X69914600Y-81450000D01*
X67771900Y-82802800D02*
X69124700Y-81450000D01*
X67771900Y-91113500D02*
X67771900Y-82802800D01*
X68272800Y-91614400D02*
X67771900Y-91113500D01*
X68272800Y-93349400D02*
X68272800Y-91614400D01*
X69368100Y-94444700D02*
X68272800Y-93349400D01*
X69490000Y-94444700D02*
X69368100Y-94444700D01*
X66307800Y-93287300D02*
X67228300Y-94207800D01*
X66307800Y-60887700D02*
X66307800Y-93287300D01*
X68605500Y-58590000D02*
X66307800Y-60887700D01*
X72037611Y-80309347D02*
X72875544Y-79471415D01*
X68272600Y-90809200D02*
X68272600Y-84823800D01*
X72037611Y-81857889D02*
X72037611Y-80309347D01*
X69905500Y-83990000D02*
X72037611Y-81857889D01*
X69106400Y-83990000D02*
X69905500Y-83990000D01*
X68272600Y-84823800D02*
X69106400Y-83990000D01*
X69368100Y-91904700D02*
X68272600Y-90809200D01*
X69414700Y-91904700D02*
X69368100Y-91904700D01*
X69490000Y-91980000D02*
X69414700Y-91904700D01*
X69490000Y-92880000D02*
X69490000Y-91980000D01*
X72875544Y-79471415D02*
X72875544Y-61754456D01*
X76918001Y-57711999D02*
X77680000Y-56950000D01*
X72875544Y-61754456D02*
X76918001Y-57711999D01*
X76108000Y-68682000D02*
X77680000Y-67110000D01*
X76108000Y-80000700D02*
X76108000Y-68682000D01*
X77122300Y-81015000D02*
X76108000Y-80000700D01*
X77122300Y-81704400D02*
X77122300Y-81015000D01*
X78703300Y-83285400D02*
X77122300Y-81704400D01*
X78703300Y-99053000D02*
X78703300Y-83285400D01*
X74659200Y-78960580D02*
X74659200Y-67590800D01*
X72937633Y-80682147D02*
X74659200Y-78960580D01*
X72400831Y-86529169D02*
X72400831Y-83051926D01*
X74659200Y-67590800D02*
X76918001Y-65331999D01*
X69490000Y-90340000D02*
X69490000Y-89440000D01*
X72400831Y-83051926D02*
X72937633Y-82515124D01*
X69490000Y-89440000D02*
X72400831Y-86529169D01*
X72937633Y-82515124D02*
X72937633Y-80682147D01*
X76918001Y-65331999D02*
X77680000Y-64570000D01*
X79323800Y-76373800D02*
X77680000Y-74730000D01*
X79323800Y-80885600D02*
X79323800Y-76373800D01*
X71950820Y-82865526D02*
X72487622Y-82328725D01*
X74018000Y-77753164D02*
X74018000Y-77328900D01*
X72487622Y-82328725D02*
X72487622Y-80495747D01*
X69490000Y-86881433D02*
X71950820Y-84420613D01*
X71950820Y-84420613D02*
X71950820Y-82865526D01*
X72487622Y-80495747D02*
X74018000Y-78965369D01*
X69490000Y-87800000D02*
X69490000Y-86881433D01*
X74018000Y-78965369D02*
X74018000Y-77753164D01*
X100726300Y-75813700D02*
X101810000Y-74730000D01*
X89302700Y-75813700D02*
X100726300Y-75813700D01*
X87706200Y-74217200D02*
X89302700Y-75813700D01*
X78848700Y-66044900D02*
X78756800Y-65953000D01*
X78848700Y-67487500D02*
X78848700Y-66044900D01*
X77956200Y-68380000D02*
X78848700Y-67487500D01*
X77387900Y-68380000D02*
X77956200Y-68380000D01*
X76592600Y-69175300D02*
X77387900Y-68380000D01*
X76592600Y-79848400D02*
X76592600Y-69175300D01*
X77797800Y-81053600D02*
X76592600Y-79848400D01*
X77797800Y-81743000D02*
X77797800Y-81053600D01*
X79389600Y-83334800D02*
X77797800Y-81743000D01*
X79389600Y-97180600D02*
X79389600Y-83334800D01*
X80805000Y-98596000D02*
X79389600Y-97180600D01*
X73775843Y-83825235D02*
X73475844Y-83525236D01*
X76317900Y-86367292D02*
X73775843Y-83825235D01*
X76317900Y-93337800D02*
X76317900Y-86367292D01*
X76152200Y-98989500D02*
X77273000Y-97868700D01*
X68859700Y-98989500D02*
X76152200Y-98989500D01*
X65257000Y-95386800D02*
X68859700Y-98989500D01*
X65257000Y-70606900D02*
X65257000Y-95386800D01*
X69490000Y-72560000D02*
X69490000Y-73535300D01*
X69368100Y-73535300D02*
X69490000Y-73535300D01*
X67321500Y-75581900D02*
X69368100Y-73535300D01*
X67321500Y-91300000D02*
X67321500Y-75581900D01*
X67558400Y-91536900D02*
X67321500Y-91300000D01*
X67558400Y-93653500D02*
X67558400Y-91536900D01*
X67853600Y-93948700D02*
X67558400Y-93653500D01*
X67853600Y-95431600D02*
X67853600Y-93948700D01*
X69342300Y-96920300D02*
X67853600Y-95431600D01*
X77114700Y-96920300D02*
X69342300Y-96920300D01*
X77370300Y-97175900D02*
X77114700Y-96920300D01*
X77916600Y-97175900D02*
X77370300Y-97175900D01*
X75284700Y-78971491D02*
X73387644Y-80868547D01*
X77187901Y-96107601D02*
X77487900Y-96407600D01*
X73387644Y-80868547D02*
X73387644Y-82701524D01*
X75284700Y-71652500D02*
X75284700Y-78971491D01*
X73387644Y-82701524D02*
X72850842Y-83238326D01*
X72850842Y-83238326D02*
X72850842Y-84191834D01*
X72850842Y-84191834D02*
X74958769Y-86299761D01*
X74958769Y-93878469D02*
X77187901Y-96107601D01*
X74958769Y-86299761D02*
X74958769Y-93878469D01*
X78248100Y-80322600D02*
X77941400Y-80015900D01*
X78248100Y-81556400D02*
X78248100Y-80322600D01*
X80075700Y-83384000D02*
X78248100Y-81556400D01*
X80075700Y-94794600D02*
X80075700Y-83384000D01*
X78056400Y-95604400D02*
X77999500Y-95661300D01*
X78056400Y-83420100D02*
X78056400Y-95604400D01*
X76399300Y-81763000D02*
X78056400Y-83420100D01*
X76399300Y-81176400D02*
X76399300Y-81763000D01*
X75586700Y-80363800D02*
X76399300Y-81176400D01*
X74842784Y-81168548D02*
X74436909Y-81168548D01*
X74436909Y-81168548D02*
X74012645Y-81168548D01*
X77386100Y-83711864D02*
X74842784Y-81168548D01*
X77386100Y-93518400D02*
X77386100Y-83711864D01*
X86342000Y-96149700D02*
X85510300Y-96149700D01*
X87187600Y-95304100D02*
X86342000Y-96149700D01*
X87187600Y-92485100D02*
X87187600Y-95304100D01*
X85472200Y-90769700D02*
X87187600Y-92485100D01*
X85472200Y-62202200D02*
X85472200Y-90769700D01*
X77680000Y-54410000D02*
X85472200Y-62202200D01*
X84956700Y-69306700D02*
X77680000Y-62030000D01*
X84956700Y-93411200D02*
X84956700Y-69306700D01*
X86562200Y-95016700D02*
X84956700Y-93411200D01*
X84332200Y-76302200D02*
X77680000Y-69650000D01*
X84332200Y-96539000D02*
X84332200Y-76302200D01*
X85368000Y-97574800D02*
X84332200Y-96539000D01*
X78698400Y-78288400D02*
X77680000Y-77270000D01*
X78698400Y-81369800D02*
X78698400Y-78288400D01*
X83675500Y-86346900D02*
X78698400Y-81369800D01*
X83675500Y-98811800D02*
X83675500Y-86346900D01*
X96202400Y-60017600D02*
X101810000Y-54410000D01*
X96202400Y-75179000D02*
X96202400Y-60017600D01*
D18*
G36*
X107370000Y-101830000D02*
X51370000Y-101830000D01*
X51370000Y-80210300D01*
X51812700Y-80210300D01*
X51812700Y-92906000D01*
X51870552Y-93196839D01*
X52035299Y-93443401D01*
X53090947Y-94499049D01*
X53072511Y-94511368D01*
X52793958Y-94928252D01*
X52696143Y-95420000D01*
X52793958Y-95911748D01*
X53072511Y-96328632D01*
X53489395Y-96607185D01*
X53905733Y-96690000D01*
X53489395Y-96772815D01*
X53072511Y-97051368D01*
X52793958Y-97468252D01*
X52696143Y-97960000D01*
X52793958Y-98451748D01*
X53072511Y-98868632D01*
X53489395Y-99147185D01*
X53981143Y-99245000D01*
X54518857Y-99245000D01*
X55010605Y-99147185D01*
X55427489Y-98868632D01*
X55706042Y-98451748D01*
X55803857Y-97960000D01*
X55706042Y-97468252D01*
X55427489Y-97051368D01*
X55010605Y-96772815D01*
X54594267Y-96690000D01*
X55010605Y-96607185D01*
X55427489Y-96328632D01*
X55706042Y-95911748D01*
X55757176Y-95654678D01*
X60850899Y-100748401D01*
X61097460Y-100913148D01*
X61145714Y-100922746D01*
X61388300Y-100971000D01*
X92321000Y-100971000D01*
X92611839Y-100913148D01*
X92858401Y-100748401D01*
X95504000Y-98102802D01*
X95504000Y-98171002D01*
X95669932Y-98171002D01*
X95545901Y-98369471D01*
X95560290Y-98454169D01*
X95810785Y-98893154D01*
X96210204Y-99202863D01*
X96697740Y-99336145D01*
X96901000Y-99175763D01*
X96901000Y-98171000D01*
X97155000Y-98171000D01*
X97155000Y-99175763D01*
X97358260Y-99336145D01*
X97845796Y-99202863D01*
X98245215Y-98893154D01*
X98495710Y-98454169D01*
X98510099Y-98369471D01*
X98386067Y-98171000D01*
X97155000Y-98171000D01*
X96901000Y-98171000D01*
X96881000Y-98171000D01*
X96881000Y-97917000D01*
X96901000Y-97917000D01*
X96901000Y-97897000D01*
X97155000Y-97897000D01*
X97155000Y-97917000D01*
X98386067Y-97917000D01*
X98510099Y-97718529D01*
X98495710Y-97633831D01*
X98245215Y-97194846D01*
X97845796Y-96885137D01*
X97683039Y-96840643D01*
X97730148Y-96770139D01*
X97744092Y-96700039D01*
X97788605Y-96691185D01*
X98205489Y-96412632D01*
X98484042Y-95995748D01*
X98581857Y-95504000D01*
X98484042Y-95012252D01*
X98205489Y-94595368D01*
X97788605Y-94316815D01*
X97372267Y-94234000D01*
X97788605Y-94151185D01*
X98205489Y-93872632D01*
X98484042Y-93455748D01*
X98581857Y-92964000D01*
X98484042Y-92472252D01*
X98205489Y-92055368D01*
X97788605Y-91776815D01*
X97744092Y-91767961D01*
X97734838Y-91721440D01*
X97917000Y-91721440D01*
X98152317Y-91677162D01*
X98368441Y-91538090D01*
X98513431Y-91325890D01*
X98564440Y-91074000D01*
X98564440Y-90976042D01*
X102323400Y-94735002D01*
X102323400Y-95626000D01*
X102381252Y-95916839D01*
X102545999Y-96163401D01*
X103498958Y-97116360D01*
X103470511Y-97135368D01*
X103191958Y-97552252D01*
X103094143Y-98044000D01*
X103191958Y-98535748D01*
X103470511Y-98952632D01*
X103887395Y-99231185D01*
X104379143Y-99329000D01*
X104916857Y-99329000D01*
X105408605Y-99231185D01*
X105825489Y-98952632D01*
X106104042Y-98535748D01*
X106201857Y-98044000D01*
X106104042Y-97552252D01*
X105825489Y-97135368D01*
X105408605Y-96856815D01*
X105364092Y-96847961D01*
X105350148Y-96777861D01*
X105305885Y-96711617D01*
X105408605Y-96691185D01*
X105825489Y-96412632D01*
X106104042Y-95995748D01*
X106201857Y-95504000D01*
X106104042Y-95012252D01*
X105825489Y-94595368D01*
X105408605Y-94316815D01*
X104992267Y-94234000D01*
X105408605Y-94151185D01*
X105825489Y-93872632D01*
X106104042Y-93455748D01*
X106201857Y-92964000D01*
X106104042Y-92472252D01*
X105825489Y-92055368D01*
X105408605Y-91776815D01*
X104992267Y-91694000D01*
X105408605Y-91611185D01*
X105825489Y-91332632D01*
X106104042Y-90915748D01*
X106201857Y-90424000D01*
X106104042Y-89932252D01*
X105825489Y-89515368D01*
X105408605Y-89236815D01*
X104916857Y-89139000D01*
X104379143Y-89139000D01*
X103887395Y-89236815D01*
X103470511Y-89515368D01*
X103191958Y-89932252D01*
X103094143Y-90424000D01*
X103191958Y-90915748D01*
X103470511Y-91332632D01*
X103887395Y-91611185D01*
X104303733Y-91694000D01*
X103887395Y-91776815D01*
X103470511Y-92055368D01*
X103191958Y-92472252D01*
X103094143Y-92964000D01*
X103191513Y-93453511D01*
X87840900Y-78102898D01*
X87840900Y-75426702D01*
X88765299Y-76351101D01*
X89011861Y-76515848D01*
X89302700Y-76573700D01*
X100586479Y-76573700D01*
X100413243Y-76990900D01*
X100412758Y-77546661D01*
X100624990Y-78060303D01*
X101017630Y-78453629D01*
X101530900Y-78666757D01*
X102086661Y-78667242D01*
X102600303Y-78455010D01*
X102993629Y-78062370D01*
X103206757Y-77549100D01*
X103207242Y-76993339D01*
X102995010Y-76479697D01*
X102602370Y-76086371D01*
X102394488Y-76000051D01*
X102600303Y-75915010D01*
X102993629Y-75522370D01*
X103206757Y-75009100D01*
X103207242Y-74453339D01*
X102995010Y-73939697D01*
X102602370Y-73546371D01*
X102394488Y-73460051D01*
X102600303Y-73375010D01*
X102993629Y-72982370D01*
X103206757Y-72469100D01*
X103207242Y-71913339D01*
X102995010Y-71399697D01*
X102602370Y-71006371D01*
X102394488Y-70920051D01*
X102600303Y-70835010D01*
X102993629Y-70442370D01*
X103206757Y-69929100D01*
X103207242Y-69373339D01*
X102995010Y-68859697D01*
X102602370Y-68466371D01*
X102394488Y-68380051D01*
X102600303Y-68295010D01*
X102993629Y-67902370D01*
X103206757Y-67389100D01*
X103207242Y-66833339D01*
X102995010Y-66319697D01*
X102602370Y-65926371D01*
X102394488Y-65840051D01*
X102600303Y-65755010D01*
X102993629Y-65362370D01*
X103206757Y-64849100D01*
X103207242Y-64293339D01*
X102995010Y-63779697D01*
X102602370Y-63386371D01*
X102394488Y-63300051D01*
X102600303Y-63215010D01*
X102993629Y-62822370D01*
X103206757Y-62309100D01*
X103207242Y-61753339D01*
X102995010Y-61239697D01*
X102602370Y-60846371D01*
X102394488Y-60760051D01*
X102600303Y-60675010D01*
X102993629Y-60282370D01*
X103206757Y-59769100D01*
X103207242Y-59213339D01*
X102995010Y-58699697D01*
X102602370Y-58306371D01*
X102394488Y-58220051D01*
X102600303Y-58135010D01*
X102993629Y-57742370D01*
X103206757Y-57229100D01*
X103207242Y-56673339D01*
X102995010Y-56159697D01*
X102602370Y-55766371D01*
X102394488Y-55680051D01*
X102600303Y-55595010D01*
X102993629Y-55202370D01*
X103206757Y-54689100D01*
X103207242Y-54133339D01*
X102995010Y-53619697D01*
X102602370Y-53226371D01*
X102394488Y-53140051D01*
X102600303Y-53055010D01*
X102993629Y-52662370D01*
X103206757Y-52149100D01*
X103207242Y-51593339D01*
X102995010Y-51079697D01*
X102602370Y-50686371D01*
X102394488Y-50600051D01*
X102600303Y-50515010D01*
X102993629Y-50122370D01*
X103206757Y-49609100D01*
X103207242Y-49053339D01*
X102995010Y-48539697D01*
X102602370Y-48146371D01*
X102089100Y-47933243D01*
X101533339Y-47932758D01*
X101019697Y-48144990D01*
X100626371Y-48537630D01*
X100413243Y-49050900D01*
X100412758Y-49606661D01*
X100624990Y-50120303D01*
X101017630Y-50513629D01*
X101225512Y-50599949D01*
X101019697Y-50684990D01*
X100626371Y-51077630D01*
X100413243Y-51590900D01*
X100412758Y-52146661D01*
X100624990Y-52660303D01*
X101017630Y-53053629D01*
X101225512Y-53139949D01*
X101019697Y-53224990D01*
X100626371Y-53617630D01*
X100413243Y-54130900D01*
X100412758Y-54686661D01*
X100426143Y-54719055D01*
X95664999Y-59480199D01*
X95500252Y-59726761D01*
X95442400Y-60017600D01*
X95442400Y-74616537D01*
X95410208Y-74648673D01*
X95267562Y-74992201D01*
X95267508Y-75053700D01*
X89617502Y-75053700D01*
X88641322Y-74077520D01*
X88641362Y-74032033D01*
X88499317Y-73688257D01*
X88236527Y-73425008D01*
X87892999Y-73282362D01*
X87840900Y-73282317D01*
X87840900Y-70360597D01*
X87926043Y-70325417D01*
X88189292Y-70062627D01*
X88331938Y-69719099D01*
X88332262Y-69347133D01*
X88190217Y-69003357D01*
X87927427Y-68740108D01*
X87583899Y-68597462D01*
X87211933Y-68597138D01*
X86868157Y-68739183D01*
X86604908Y-69001973D01*
X86517781Y-69211798D01*
X86489999Y-69200262D01*
X86232200Y-69200037D01*
X86232200Y-62202200D01*
X86174348Y-61911361D01*
X86009601Y-61664799D01*
X79064183Y-54719381D01*
X79076757Y-54689100D01*
X79077242Y-54133339D01*
X78865010Y-53619697D01*
X78730425Y-53484877D01*
X79312401Y-52902901D01*
X79477148Y-52656339D01*
X79535000Y-52365500D01*
X79535000Y-50425000D01*
X79477148Y-50134161D01*
X79312401Y-49887599D01*
X79064183Y-49639381D01*
X79076757Y-49609100D01*
X79077242Y-49053339D01*
X78865010Y-48539697D01*
X78472370Y-48146371D01*
X77959100Y-47933243D01*
X77403339Y-47932758D01*
X76889697Y-48144990D01*
X76496371Y-48537630D01*
X76283243Y-49050900D01*
X76282758Y-49606661D01*
X76494990Y-50120303D01*
X76887630Y-50513629D01*
X77095512Y-50599949D01*
X76889697Y-50684990D01*
X76496371Y-51077630D01*
X76283243Y-51590900D01*
X76282758Y-52146661D01*
X76296143Y-52179054D01*
X71016211Y-57458987D01*
X71043857Y-57320000D01*
X70946042Y-56828252D01*
X70667489Y-56411368D01*
X70621897Y-56380905D01*
X71247301Y-55755501D01*
X71412048Y-55508939D01*
X71469900Y-55218100D01*
X71469900Y-54313300D01*
X71412048Y-54022461D01*
X71311091Y-53871368D01*
X71247301Y-53775898D01*
X70639042Y-53167640D01*
X70667489Y-53148632D01*
X70946042Y-52731748D01*
X71043857Y-52240000D01*
X70946042Y-51748252D01*
X70667489Y-51331368D01*
X70250605Y-51052815D01*
X69873048Y-50977714D01*
X70307796Y-50858863D01*
X70707215Y-50549154D01*
X70957710Y-50110169D01*
X70972099Y-50025471D01*
X70848067Y-49827000D01*
X69617000Y-49827000D01*
X69617000Y-49847000D01*
X69363000Y-49847000D01*
X69363000Y-49827000D01*
X68131933Y-49827000D01*
X68007901Y-50025471D01*
X68022290Y-50110169D01*
X68272785Y-50549154D01*
X68672204Y-50858863D01*
X69106952Y-50977714D01*
X68729395Y-51052815D01*
X68312511Y-51331368D01*
X68033958Y-51748252D01*
X67936143Y-52240000D01*
X68033958Y-52731748D01*
X68312511Y-53148632D01*
X68729395Y-53427185D01*
X68773908Y-53436039D01*
X68787852Y-53506139D01*
X68834961Y-53576643D01*
X68672204Y-53621137D01*
X68272785Y-53930846D01*
X68022290Y-54369831D01*
X68007901Y-54454529D01*
X68131933Y-54653000D01*
X69363000Y-54653000D01*
X69363000Y-54633000D01*
X69617000Y-54633000D01*
X69617000Y-54653000D01*
X69637000Y-54653000D01*
X69637000Y-54907000D01*
X69617000Y-54907000D01*
X69617000Y-54927000D01*
X69363000Y-54927000D01*
X69363000Y-54907000D01*
X68131933Y-54907000D01*
X68007901Y-55105471D01*
X68022290Y-55190169D01*
X68272785Y-55629154D01*
X68672204Y-55938863D01*
X68834961Y-55983357D01*
X68787852Y-56053861D01*
X68773908Y-56123961D01*
X68729395Y-56132815D01*
X68312511Y-56411368D01*
X68033958Y-56828252D01*
X67936143Y-57320000D01*
X68033958Y-57811748D01*
X68045045Y-57828340D01*
X67813308Y-58059673D01*
X67670662Y-58403201D01*
X67670621Y-58450076D01*
X65770399Y-60350299D01*
X65605652Y-60596861D01*
X65547800Y-60887700D01*
X65547800Y-69715247D01*
X65443799Y-69672062D01*
X65071833Y-69671738D01*
X64728057Y-69813783D01*
X64464808Y-70076573D01*
X64322162Y-70420101D01*
X64321838Y-70792067D01*
X64463883Y-71135843D01*
X64497000Y-71169018D01*
X64497000Y-95386800D01*
X64554852Y-95677639D01*
X64719599Y-95924201D01*
X67754898Y-98959500D01*
X63944302Y-98959500D01*
X55762701Y-90777899D01*
X55722144Y-90750800D01*
X55803857Y-90340000D01*
X55706042Y-89848252D01*
X55427489Y-89431368D01*
X55010605Y-89152815D01*
X54633048Y-89077714D01*
X55067796Y-88958863D01*
X55467215Y-88649154D01*
X55717710Y-88210169D01*
X55732099Y-88125471D01*
X55608067Y-87927000D01*
X54377000Y-87927000D01*
X54377000Y-87947000D01*
X54123000Y-87947000D01*
X54123000Y-87927000D01*
X54103000Y-87927000D01*
X54103000Y-87673000D01*
X54123000Y-87673000D01*
X54123000Y-87653000D01*
X54377000Y-87653000D01*
X54377000Y-87673000D01*
X55608067Y-87673000D01*
X55732099Y-87474529D01*
X55717710Y-87389831D01*
X55467215Y-86950846D01*
X55067796Y-86641137D01*
X54633048Y-86522286D01*
X55010605Y-86447185D01*
X55427489Y-86168632D01*
X55706042Y-85751748D01*
X55803857Y-85260000D01*
X55706042Y-84768252D01*
X55427489Y-84351368D01*
X55010605Y-84072815D01*
X54966092Y-84063961D01*
X54952148Y-83993861D01*
X54905039Y-83923357D01*
X55067796Y-83878863D01*
X55467215Y-83569154D01*
X55717710Y-83130169D01*
X55732099Y-83045471D01*
X55608067Y-82847000D01*
X54377000Y-82847000D01*
X54377000Y-82867000D01*
X54123000Y-82867000D01*
X54123000Y-82847000D01*
X54103000Y-82847000D01*
X54103000Y-82593000D01*
X54123000Y-82593000D01*
X54123000Y-82573000D01*
X54377000Y-82573000D01*
X54377000Y-82593000D01*
X55608067Y-82593000D01*
X55732099Y-82394529D01*
X55717710Y-82309831D01*
X55467215Y-81870846D01*
X55067796Y-81561137D01*
X54905039Y-81516643D01*
X54952148Y-81446139D01*
X54966092Y-81376039D01*
X55010605Y-81367185D01*
X55427489Y-81088632D01*
X55706042Y-80671748D01*
X55803857Y-80180000D01*
X55706042Y-79688252D01*
X55427489Y-79271368D01*
X55386573Y-79244029D01*
X56016801Y-78613801D01*
X56181548Y-78367240D01*
X56191146Y-78318986D01*
X56239400Y-78076400D01*
X56239400Y-72102800D01*
X56181548Y-71811961D01*
X56016801Y-71565399D01*
X55399042Y-70947640D01*
X55427489Y-70928632D01*
X55706042Y-70511748D01*
X55803857Y-70020000D01*
X55706042Y-69528252D01*
X55427489Y-69111368D01*
X55010605Y-68832815D01*
X54594267Y-68750000D01*
X55010605Y-68667185D01*
X55427489Y-68388632D01*
X55706042Y-67971748D01*
X55803857Y-67480000D01*
X55706042Y-66988252D01*
X55427489Y-66571368D01*
X55010605Y-66292815D01*
X54907885Y-66272383D01*
X54952148Y-66206139D01*
X54966092Y-66136039D01*
X55010605Y-66127185D01*
X55427489Y-65848632D01*
X55706042Y-65431748D01*
X55803857Y-64940000D01*
X55706042Y-64448252D01*
X55427489Y-64031368D01*
X55010605Y-63752815D01*
X54633048Y-63677714D01*
X55067796Y-63558863D01*
X55467215Y-63249154D01*
X55717710Y-62810169D01*
X55732099Y-62725471D01*
X55608067Y-62527000D01*
X54377000Y-62527000D01*
X54377000Y-62547000D01*
X54123000Y-62547000D01*
X54123000Y-62527000D01*
X52891933Y-62527000D01*
X52767901Y-62725471D01*
X52782290Y-62810169D01*
X53032785Y-63249154D01*
X53432204Y-63558863D01*
X53866952Y-63677714D01*
X53489395Y-63752815D01*
X53072511Y-64031368D01*
X52793958Y-64448252D01*
X52696143Y-64940000D01*
X52793958Y-65431748D01*
X53072511Y-65848632D01*
X53118103Y-65879095D01*
X52492699Y-66504499D01*
X52327952Y-66751061D01*
X52270100Y-67041900D01*
X52270100Y-73026700D01*
X52327952Y-73317539D01*
X52492699Y-73564101D01*
X53100958Y-74172360D01*
X53072511Y-74191368D01*
X52793958Y-74608252D01*
X52696143Y-75100000D01*
X52793958Y-75591748D01*
X53072511Y-76008632D01*
X53489395Y-76287185D01*
X53866952Y-76362286D01*
X53432204Y-76481137D01*
X53032785Y-76790846D01*
X52782290Y-77229831D01*
X52767901Y-77314529D01*
X52891933Y-77513000D01*
X54123000Y-77513000D01*
X54123000Y-77493000D01*
X54377000Y-77493000D01*
X54377000Y-77513000D01*
X54397000Y-77513000D01*
X54397000Y-77767000D01*
X54377000Y-77767000D01*
X54377000Y-77787000D01*
X54123000Y-77787000D01*
X54123000Y-77767000D01*
X52891933Y-77767000D01*
X52767901Y-77965471D01*
X52782290Y-78050169D01*
X53032785Y-78489154D01*
X53137696Y-78570502D01*
X52035299Y-79672899D01*
X51870552Y-79919461D01*
X51812700Y-80210300D01*
X51370000Y-80210300D01*
X51370000Y-51824600D01*
X52218800Y-51824600D01*
X52218800Y-57735400D01*
X52276652Y-58026239D01*
X52441399Y-58272801D01*
X53100958Y-58932360D01*
X53072511Y-58951368D01*
X52793958Y-59368252D01*
X52696143Y-59860000D01*
X52793958Y-60351748D01*
X53072511Y-60768632D01*
X53489395Y-61047185D01*
X53866952Y-61122286D01*
X53432204Y-61241137D01*
X53032785Y-61550846D01*
X52782290Y-61989831D01*
X52767901Y-62074529D01*
X52891933Y-62273000D01*
X54123000Y-62273000D01*
X54123000Y-62253000D01*
X54377000Y-62253000D01*
X54377000Y-62273000D01*
X55608067Y-62273000D01*
X55732099Y-62074529D01*
X55717710Y-61989831D01*
X55467215Y-61550846D01*
X55067796Y-61241137D01*
X54633048Y-61122286D01*
X55010605Y-61047185D01*
X55427489Y-60768632D01*
X55706042Y-60351748D01*
X55803857Y-59860000D01*
X55706042Y-59368252D01*
X55427489Y-58951368D01*
X55010605Y-58672815D01*
X54966092Y-58663961D01*
X54952148Y-58593861D01*
X54905039Y-58523357D01*
X55067796Y-58478863D01*
X55467215Y-58169154D01*
X55717710Y-57730169D01*
X55732099Y-57645471D01*
X55608067Y-57447000D01*
X54377000Y-57447000D01*
X54377000Y-57467000D01*
X54123000Y-57467000D01*
X54123000Y-57447000D01*
X54103000Y-57447000D01*
X54103000Y-57193000D01*
X54123000Y-57193000D01*
X54123000Y-57173000D01*
X54377000Y-57173000D01*
X54377000Y-57193000D01*
X55608067Y-57193000D01*
X55732099Y-56994529D01*
X55717710Y-56909831D01*
X55467215Y-56470846D01*
X55067796Y-56161137D01*
X54633048Y-56042286D01*
X55010605Y-55967185D01*
X55427489Y-55688632D01*
X55706042Y-55271748D01*
X55803857Y-54780000D01*
X55706042Y-54288252D01*
X55427489Y-53871368D01*
X55010605Y-53592815D01*
X54633048Y-53517714D01*
X55067796Y-53398863D01*
X55467215Y-53089154D01*
X55717710Y-52650169D01*
X55732099Y-52565471D01*
X55608067Y-52367000D01*
X54377000Y-52367000D01*
X54377000Y-52387000D01*
X54123000Y-52387000D01*
X54123000Y-52367000D01*
X54103000Y-52367000D01*
X54103000Y-52113000D01*
X54123000Y-52113000D01*
X54123000Y-52093000D01*
X54377000Y-52093000D01*
X54377000Y-52113000D01*
X55608067Y-52113000D01*
X55732099Y-51914529D01*
X55717710Y-51829831D01*
X55467215Y-51390846D01*
X55067796Y-51081137D01*
X54905039Y-51036643D01*
X54931233Y-50997440D01*
X55139000Y-50997440D01*
X55374317Y-50953162D01*
X55590441Y-50814090D01*
X55735431Y-50601890D01*
X55786440Y-50350000D01*
X55786440Y-49374529D01*
X68007901Y-49374529D01*
X68131933Y-49573000D01*
X69363000Y-49573000D01*
X69363000Y-48568237D01*
X69617000Y-48568237D01*
X69617000Y-49573000D01*
X70848067Y-49573000D01*
X70972099Y-49374529D01*
X70957710Y-49289831D01*
X70707215Y-48850846D01*
X70307796Y-48541137D01*
X69820260Y-48407855D01*
X69617000Y-48568237D01*
X69363000Y-48568237D01*
X69159740Y-48407855D01*
X68672204Y-48541137D01*
X68272785Y-48850846D01*
X68022290Y-49289831D01*
X68007901Y-49374529D01*
X55786440Y-49374529D01*
X55786440Y-49050000D01*
X55742162Y-48814683D01*
X55603090Y-48598559D01*
X55390890Y-48453569D01*
X55139000Y-48402560D01*
X53361000Y-48402560D01*
X53125683Y-48446838D01*
X52909559Y-48585910D01*
X52764569Y-48798110D01*
X52713560Y-49050000D01*
X52713560Y-50350000D01*
X52757838Y-50585317D01*
X52896910Y-50801441D01*
X52914879Y-50813719D01*
X52441399Y-51287199D01*
X52276652Y-51533761D01*
X52218800Y-51824600D01*
X51370000Y-51824600D01*
X51370000Y-45830000D01*
X107370000Y-45830000D01*
X107370000Y-101830000D01*
X107370000Y-101830000D01*
G37*
X107370000Y-101830000D02*
X51370000Y-101830000D01*
X51370000Y-80210300D01*
X51812700Y-80210300D01*
X51812700Y-92906000D01*
X51870552Y-93196839D01*
X52035299Y-93443401D01*
X53090947Y-94499049D01*
X53072511Y-94511368D01*
X52793958Y-94928252D01*
X52696143Y-95420000D01*
X52793958Y-95911748D01*
X53072511Y-96328632D01*
X53489395Y-96607185D01*
X53905733Y-96690000D01*
X53489395Y-96772815D01*
X53072511Y-97051368D01*
X52793958Y-97468252D01*
X52696143Y-97960000D01*
X52793958Y-98451748D01*
X53072511Y-98868632D01*
X53489395Y-99147185D01*
X53981143Y-99245000D01*
X54518857Y-99245000D01*
X55010605Y-99147185D01*
X55427489Y-98868632D01*
X55706042Y-98451748D01*
X55803857Y-97960000D01*
X55706042Y-97468252D01*
X55427489Y-97051368D01*
X55010605Y-96772815D01*
X54594267Y-96690000D01*
X55010605Y-96607185D01*
X55427489Y-96328632D01*
X55706042Y-95911748D01*
X55757176Y-95654678D01*
X60850899Y-100748401D01*
X61097460Y-100913148D01*
X61145714Y-100922746D01*
X61388300Y-100971000D01*
X92321000Y-100971000D01*
X92611839Y-100913148D01*
X92858401Y-100748401D01*
X95504000Y-98102802D01*
X95504000Y-98171002D01*
X95669932Y-98171002D01*
X95545901Y-98369471D01*
X95560290Y-98454169D01*
X95810785Y-98893154D01*
X96210204Y-99202863D01*
X96697740Y-99336145D01*
X96901000Y-99175763D01*
X96901000Y-98171000D01*
X97155000Y-98171000D01*
X97155000Y-99175763D01*
X97358260Y-99336145D01*
X97845796Y-99202863D01*
X98245215Y-98893154D01*
X98495710Y-98454169D01*
X98510099Y-98369471D01*
X98386067Y-98171000D01*
X97155000Y-98171000D01*
X96901000Y-98171000D01*
X96881000Y-98171000D01*
X96881000Y-97917000D01*
X96901000Y-97917000D01*
X96901000Y-97897000D01*
X97155000Y-97897000D01*
X97155000Y-97917000D01*
X98386067Y-97917000D01*
X98510099Y-97718529D01*
X98495710Y-97633831D01*
X98245215Y-97194846D01*
X97845796Y-96885137D01*
X97683039Y-96840643D01*
X97730148Y-96770139D01*
X97744092Y-96700039D01*
X97788605Y-96691185D01*
X98205489Y-96412632D01*
X98484042Y-95995748D01*
X98581857Y-95504000D01*
X98484042Y-95012252D01*
X98205489Y-94595368D01*
X97788605Y-94316815D01*
X97372267Y-94234000D01*
X97788605Y-94151185D01*
X98205489Y-93872632D01*
X98484042Y-93455748D01*
X98581857Y-92964000D01*
X98484042Y-92472252D01*
X98205489Y-92055368D01*
X97788605Y-91776815D01*
X97744092Y-91767961D01*
X97734838Y-91721440D01*
X97917000Y-91721440D01*
X98152317Y-91677162D01*
X98368441Y-91538090D01*
X98513431Y-91325890D01*
X98564440Y-91074000D01*
X98564440Y-90976042D01*
X102323400Y-94735002D01*
X102323400Y-95626000D01*
X102381252Y-95916839D01*
X102545999Y-96163401D01*
X103498958Y-97116360D01*
X103470511Y-97135368D01*
X103191958Y-97552252D01*
X103094143Y-98044000D01*
X103191958Y-98535748D01*
X103470511Y-98952632D01*
X103887395Y-99231185D01*
X104379143Y-99329000D01*
X104916857Y-99329000D01*
X105408605Y-99231185D01*
X105825489Y-98952632D01*
X106104042Y-98535748D01*
X106201857Y-98044000D01*
X106104042Y-97552252D01*
X105825489Y-97135368D01*
X105408605Y-96856815D01*
X105364092Y-96847961D01*
X105350148Y-96777861D01*
X105305885Y-96711617D01*
X105408605Y-96691185D01*
X105825489Y-96412632D01*
X106104042Y-95995748D01*
X106201857Y-95504000D01*
X106104042Y-95012252D01*
X105825489Y-94595368D01*
X105408605Y-94316815D01*
X104992267Y-94234000D01*
X105408605Y-94151185D01*
X105825489Y-93872632D01*
X106104042Y-93455748D01*
X106201857Y-92964000D01*
X106104042Y-92472252D01*
X105825489Y-92055368D01*
X105408605Y-91776815D01*
X104992267Y-91694000D01*
X105408605Y-91611185D01*
X105825489Y-91332632D01*
X106104042Y-90915748D01*
X106201857Y-90424000D01*
X106104042Y-89932252D01*
X105825489Y-89515368D01*
X105408605Y-89236815D01*
X104916857Y-89139000D01*
X104379143Y-89139000D01*
X103887395Y-89236815D01*
X103470511Y-89515368D01*
X103191958Y-89932252D01*
X103094143Y-90424000D01*
X103191958Y-90915748D01*
X103470511Y-91332632D01*
X103887395Y-91611185D01*
X104303733Y-91694000D01*
X103887395Y-91776815D01*
X103470511Y-92055368D01*
X103191958Y-92472252D01*
X103094143Y-92964000D01*
X103191513Y-93453511D01*
X87840900Y-78102898D01*
X87840900Y-75426702D01*
X88765299Y-76351101D01*
X89011861Y-76515848D01*
X89302700Y-76573700D01*
X100586479Y-76573700D01*
X100413243Y-76990900D01*
X100412758Y-77546661D01*
X100624990Y-78060303D01*
X101017630Y-78453629D01*
X101530900Y-78666757D01*
X102086661Y-78667242D01*
X102600303Y-78455010D01*
X102993629Y-78062370D01*
X103206757Y-77549100D01*
X103207242Y-76993339D01*
X102995010Y-76479697D01*
X102602370Y-76086371D01*
X102394488Y-76000051D01*
X102600303Y-75915010D01*
X102993629Y-75522370D01*
X103206757Y-75009100D01*
X103207242Y-74453339D01*
X102995010Y-73939697D01*
X102602370Y-73546371D01*
X102394488Y-73460051D01*
X102600303Y-73375010D01*
X102993629Y-72982370D01*
X103206757Y-72469100D01*
X103207242Y-71913339D01*
X102995010Y-71399697D01*
X102602370Y-71006371D01*
X102394488Y-70920051D01*
X102600303Y-70835010D01*
X102993629Y-70442370D01*
X103206757Y-69929100D01*
X103207242Y-69373339D01*
X102995010Y-68859697D01*
X102602370Y-68466371D01*
X102394488Y-68380051D01*
X102600303Y-68295010D01*
X102993629Y-67902370D01*
X103206757Y-67389100D01*
X103207242Y-66833339D01*
X102995010Y-66319697D01*
X102602370Y-65926371D01*
X102394488Y-65840051D01*
X102600303Y-65755010D01*
X102993629Y-65362370D01*
X103206757Y-64849100D01*
X103207242Y-64293339D01*
X102995010Y-63779697D01*
X102602370Y-63386371D01*
X102394488Y-63300051D01*
X102600303Y-63215010D01*
X102993629Y-62822370D01*
X103206757Y-62309100D01*
X103207242Y-61753339D01*
X102995010Y-61239697D01*
X102602370Y-60846371D01*
X102394488Y-60760051D01*
X102600303Y-60675010D01*
X102993629Y-60282370D01*
X103206757Y-59769100D01*
X103207242Y-59213339D01*
X102995010Y-58699697D01*
X102602370Y-58306371D01*
X102394488Y-58220051D01*
X102600303Y-58135010D01*
X102993629Y-57742370D01*
X103206757Y-57229100D01*
X103207242Y-56673339D01*
X102995010Y-56159697D01*
X102602370Y-55766371D01*
X102394488Y-55680051D01*
X102600303Y-55595010D01*
X102993629Y-55202370D01*
X103206757Y-54689100D01*
X103207242Y-54133339D01*
X102995010Y-53619697D01*
X102602370Y-53226371D01*
X102394488Y-53140051D01*
X102600303Y-53055010D01*
X102993629Y-52662370D01*
X103206757Y-52149100D01*
X103207242Y-51593339D01*
X102995010Y-51079697D01*
X102602370Y-50686371D01*
X102394488Y-50600051D01*
X102600303Y-50515010D01*
X102993629Y-50122370D01*
X103206757Y-49609100D01*
X103207242Y-49053339D01*
X102995010Y-48539697D01*
X102602370Y-48146371D01*
X102089100Y-47933243D01*
X101533339Y-47932758D01*
X101019697Y-48144990D01*
X100626371Y-48537630D01*
X100413243Y-49050900D01*
X100412758Y-49606661D01*
X100624990Y-50120303D01*
X101017630Y-50513629D01*
X101225512Y-50599949D01*
X101019697Y-50684990D01*
X100626371Y-51077630D01*
X100413243Y-51590900D01*
X100412758Y-52146661D01*
X100624990Y-52660303D01*
X101017630Y-53053629D01*
X101225512Y-53139949D01*
X101019697Y-53224990D01*
X100626371Y-53617630D01*
X100413243Y-54130900D01*
X100412758Y-54686661D01*
X100426143Y-54719055D01*
X95664999Y-59480199D01*
X95500252Y-59726761D01*
X95442400Y-60017600D01*
X95442400Y-74616537D01*
X95410208Y-74648673D01*
X95267562Y-74992201D01*
X95267508Y-75053700D01*
X89617502Y-75053700D01*
X88641322Y-74077520D01*
X88641362Y-74032033D01*
X88499317Y-73688257D01*
X88236527Y-73425008D01*
X87892999Y-73282362D01*
X87840900Y-73282317D01*
X87840900Y-70360597D01*
X87926043Y-70325417D01*
X88189292Y-70062627D01*
X88331938Y-69719099D01*
X88332262Y-69347133D01*
X88190217Y-69003357D01*
X87927427Y-68740108D01*
X87583899Y-68597462D01*
X87211933Y-68597138D01*
X86868157Y-68739183D01*
X86604908Y-69001973D01*
X86517781Y-69211798D01*
X86489999Y-69200262D01*
X86232200Y-69200037D01*
X86232200Y-62202200D01*
X86174348Y-61911361D01*
X86009601Y-61664799D01*
X79064183Y-54719381D01*
X79076757Y-54689100D01*
X79077242Y-54133339D01*
X78865010Y-53619697D01*
X78730425Y-53484877D01*
X79312401Y-52902901D01*
X79477148Y-52656339D01*
X79535000Y-52365500D01*
X79535000Y-50425000D01*
X79477148Y-50134161D01*
X79312401Y-49887599D01*
X79064183Y-49639381D01*
X79076757Y-49609100D01*
X79077242Y-49053339D01*
X78865010Y-48539697D01*
X78472370Y-48146371D01*
X77959100Y-47933243D01*
X77403339Y-47932758D01*
X76889697Y-48144990D01*
X76496371Y-48537630D01*
X76283243Y-49050900D01*
X76282758Y-49606661D01*
X76494990Y-50120303D01*
X76887630Y-50513629D01*
X77095512Y-50599949D01*
X76889697Y-50684990D01*
X76496371Y-51077630D01*
X76283243Y-51590900D01*
X76282758Y-52146661D01*
X76296143Y-52179054D01*
X71016211Y-57458987D01*
X71043857Y-57320000D01*
X70946042Y-56828252D01*
X70667489Y-56411368D01*
X70621897Y-56380905D01*
X71247301Y-55755501D01*
X71412048Y-55508939D01*
X71469900Y-55218100D01*
X71469900Y-54313300D01*
X71412048Y-54022461D01*
X71311091Y-53871368D01*
X71247301Y-53775898D01*
X70639042Y-53167640D01*
X70667489Y-53148632D01*
X70946042Y-52731748D01*
X71043857Y-52240000D01*
X70946042Y-51748252D01*
X70667489Y-51331368D01*
X70250605Y-51052815D01*
X69873048Y-50977714D01*
X70307796Y-50858863D01*
X70707215Y-50549154D01*
X70957710Y-50110169D01*
X70972099Y-50025471D01*
X70848067Y-49827000D01*
X69617000Y-49827000D01*
X69617000Y-49847000D01*
X69363000Y-49847000D01*
X69363000Y-49827000D01*
X68131933Y-49827000D01*
X68007901Y-50025471D01*
X68022290Y-50110169D01*
X68272785Y-50549154D01*
X68672204Y-50858863D01*
X69106952Y-50977714D01*
X68729395Y-51052815D01*
X68312511Y-51331368D01*
X68033958Y-51748252D01*
X67936143Y-52240000D01*
X68033958Y-52731748D01*
X68312511Y-53148632D01*
X68729395Y-53427185D01*
X68773908Y-53436039D01*
X68787852Y-53506139D01*
X68834961Y-53576643D01*
X68672204Y-53621137D01*
X68272785Y-53930846D01*
X68022290Y-54369831D01*
X68007901Y-54454529D01*
X68131933Y-54653000D01*
X69363000Y-54653000D01*
X69363000Y-54633000D01*
X69617000Y-54633000D01*
X69617000Y-54653000D01*
X69637000Y-54653000D01*
X69637000Y-54907000D01*
X69617000Y-54907000D01*
X69617000Y-54927000D01*
X69363000Y-54927000D01*
X69363000Y-54907000D01*
X68131933Y-54907000D01*
X68007901Y-55105471D01*
X68022290Y-55190169D01*
X68272785Y-55629154D01*
X68672204Y-55938863D01*
X68834961Y-55983357D01*
X68787852Y-56053861D01*
X68773908Y-56123961D01*
X68729395Y-56132815D01*
X68312511Y-56411368D01*
X68033958Y-56828252D01*
X67936143Y-57320000D01*
X68033958Y-57811748D01*
X68045045Y-57828340D01*
X67813308Y-58059673D01*
X67670662Y-58403201D01*
X67670621Y-58450076D01*
X65770399Y-60350299D01*
X65605652Y-60596861D01*
X65547800Y-60887700D01*
X65547800Y-69715247D01*
X65443799Y-69672062D01*
X65071833Y-69671738D01*
X64728057Y-69813783D01*
X64464808Y-70076573D01*
X64322162Y-70420101D01*
X64321838Y-70792067D01*
X64463883Y-71135843D01*
X64497000Y-71169018D01*
X64497000Y-95386800D01*
X64554852Y-95677639D01*
X64719599Y-95924201D01*
X67754898Y-98959500D01*
X63944302Y-98959500D01*
X55762701Y-90777899D01*
X55722144Y-90750800D01*
X55803857Y-90340000D01*
X55706042Y-89848252D01*
X55427489Y-89431368D01*
X55010605Y-89152815D01*
X54633048Y-89077714D01*
X55067796Y-88958863D01*
X55467215Y-88649154D01*
X55717710Y-88210169D01*
X55732099Y-88125471D01*
X55608067Y-87927000D01*
X54377000Y-87927000D01*
X54377000Y-87947000D01*
X54123000Y-87947000D01*
X54123000Y-87927000D01*
X54103000Y-87927000D01*
X54103000Y-87673000D01*
X54123000Y-87673000D01*
X54123000Y-87653000D01*
X54377000Y-87653000D01*
X54377000Y-87673000D01*
X55608067Y-87673000D01*
X55732099Y-87474529D01*
X55717710Y-87389831D01*
X55467215Y-86950846D01*
X55067796Y-86641137D01*
X54633048Y-86522286D01*
X55010605Y-86447185D01*
X55427489Y-86168632D01*
X55706042Y-85751748D01*
X55803857Y-85260000D01*
X55706042Y-84768252D01*
X55427489Y-84351368D01*
X55010605Y-84072815D01*
X54966092Y-84063961D01*
X54952148Y-83993861D01*
X54905039Y-83923357D01*
X55067796Y-83878863D01*
X55467215Y-83569154D01*
X55717710Y-83130169D01*
X55732099Y-83045471D01*
X55608067Y-82847000D01*
X54377000Y-82847000D01*
X54377000Y-82867000D01*
X54123000Y-82867000D01*
X54123000Y-82847000D01*
X54103000Y-82847000D01*
X54103000Y-82593000D01*
X54123000Y-82593000D01*
X54123000Y-82573000D01*
X54377000Y-82573000D01*
X54377000Y-82593000D01*
X55608067Y-82593000D01*
X55732099Y-82394529D01*
X55717710Y-82309831D01*
X55467215Y-81870846D01*
X55067796Y-81561137D01*
X54905039Y-81516643D01*
X54952148Y-81446139D01*
X54966092Y-81376039D01*
X55010605Y-81367185D01*
X55427489Y-81088632D01*
X55706042Y-80671748D01*
X55803857Y-80180000D01*
X55706042Y-79688252D01*
X55427489Y-79271368D01*
X55386573Y-79244029D01*
X56016801Y-78613801D01*
X56181548Y-78367240D01*
X56191146Y-78318986D01*
X56239400Y-78076400D01*
X56239400Y-72102800D01*
X56181548Y-71811961D01*
X56016801Y-71565399D01*
X55399042Y-70947640D01*
X55427489Y-70928632D01*
X55706042Y-70511748D01*
X55803857Y-70020000D01*
X55706042Y-69528252D01*
X55427489Y-69111368D01*
X55010605Y-68832815D01*
X54594267Y-68750000D01*
X55010605Y-68667185D01*
X55427489Y-68388632D01*
X55706042Y-67971748D01*
X55803857Y-67480000D01*
X55706042Y-66988252D01*
X55427489Y-66571368D01*
X55010605Y-66292815D01*
X54907885Y-66272383D01*
X54952148Y-66206139D01*
X54966092Y-66136039D01*
X55010605Y-66127185D01*
X55427489Y-65848632D01*
X55706042Y-65431748D01*
X55803857Y-64940000D01*
X55706042Y-64448252D01*
X55427489Y-64031368D01*
X55010605Y-63752815D01*
X54633048Y-63677714D01*
X55067796Y-63558863D01*
X55467215Y-63249154D01*
X55717710Y-62810169D01*
X55732099Y-62725471D01*
X55608067Y-62527000D01*
X54377000Y-62527000D01*
X54377000Y-62547000D01*
X54123000Y-62547000D01*
X54123000Y-62527000D01*
X52891933Y-62527000D01*
X52767901Y-62725471D01*
X52782290Y-62810169D01*
X53032785Y-63249154D01*
X53432204Y-63558863D01*
X53866952Y-63677714D01*
X53489395Y-63752815D01*
X53072511Y-64031368D01*
X52793958Y-64448252D01*
X52696143Y-64940000D01*
X52793958Y-65431748D01*
X53072511Y-65848632D01*
X53118103Y-65879095D01*
X52492699Y-66504499D01*
X52327952Y-66751061D01*
X52270100Y-67041900D01*
X52270100Y-73026700D01*
X52327952Y-73317539D01*
X52492699Y-73564101D01*
X53100958Y-74172360D01*
X53072511Y-74191368D01*
X52793958Y-74608252D01*
X52696143Y-75100000D01*
X52793958Y-75591748D01*
X53072511Y-76008632D01*
X53489395Y-76287185D01*
X53866952Y-76362286D01*
X53432204Y-76481137D01*
X53032785Y-76790846D01*
X52782290Y-77229831D01*
X52767901Y-77314529D01*
X52891933Y-77513000D01*
X54123000Y-77513000D01*
X54123000Y-77493000D01*
X54377000Y-77493000D01*
X54377000Y-77513000D01*
X54397000Y-77513000D01*
X54397000Y-77767000D01*
X54377000Y-77767000D01*
X54377000Y-77787000D01*
X54123000Y-77787000D01*
X54123000Y-77767000D01*
X52891933Y-77767000D01*
X52767901Y-77965471D01*
X52782290Y-78050169D01*
X53032785Y-78489154D01*
X53137696Y-78570502D01*
X52035299Y-79672899D01*
X51870552Y-79919461D01*
X51812700Y-80210300D01*
X51370000Y-80210300D01*
X51370000Y-51824600D01*
X52218800Y-51824600D01*
X52218800Y-57735400D01*
X52276652Y-58026239D01*
X52441399Y-58272801D01*
X53100958Y-58932360D01*
X53072511Y-58951368D01*
X52793958Y-59368252D01*
X52696143Y-59860000D01*
X52793958Y-60351748D01*
X53072511Y-60768632D01*
X53489395Y-61047185D01*
X53866952Y-61122286D01*
X53432204Y-61241137D01*
X53032785Y-61550846D01*
X52782290Y-61989831D01*
X52767901Y-62074529D01*
X52891933Y-62273000D01*
X54123000Y-62273000D01*
X54123000Y-62253000D01*
X54377000Y-62253000D01*
X54377000Y-62273000D01*
X55608067Y-62273000D01*
X55732099Y-62074529D01*
X55717710Y-61989831D01*
X55467215Y-61550846D01*
X55067796Y-61241137D01*
X54633048Y-61122286D01*
X55010605Y-61047185D01*
X55427489Y-60768632D01*
X55706042Y-60351748D01*
X55803857Y-59860000D01*
X55706042Y-59368252D01*
X55427489Y-58951368D01*
X55010605Y-58672815D01*
X54966092Y-58663961D01*
X54952148Y-58593861D01*
X54905039Y-58523357D01*
X55067796Y-58478863D01*
X55467215Y-58169154D01*
X55717710Y-57730169D01*
X55732099Y-57645471D01*
X55608067Y-57447000D01*
X54377000Y-57447000D01*
X54377000Y-57467000D01*
X54123000Y-57467000D01*
X54123000Y-57447000D01*
X54103000Y-57447000D01*
X54103000Y-57193000D01*
X54123000Y-57193000D01*
X54123000Y-57173000D01*
X54377000Y-57173000D01*
X54377000Y-57193000D01*
X55608067Y-57193000D01*
X55732099Y-56994529D01*
X55717710Y-56909831D01*
X55467215Y-56470846D01*
X55067796Y-56161137D01*
X54633048Y-56042286D01*
X55010605Y-55967185D01*
X55427489Y-55688632D01*
X55706042Y-55271748D01*
X55803857Y-54780000D01*
X55706042Y-54288252D01*
X55427489Y-53871368D01*
X55010605Y-53592815D01*
X54633048Y-53517714D01*
X55067796Y-53398863D01*
X55467215Y-53089154D01*
X55717710Y-52650169D01*
X55732099Y-52565471D01*
X55608067Y-52367000D01*
X54377000Y-52367000D01*
X54377000Y-52387000D01*
X54123000Y-52387000D01*
X54123000Y-52367000D01*
X54103000Y-52367000D01*
X54103000Y-52113000D01*
X54123000Y-52113000D01*
X54123000Y-52093000D01*
X54377000Y-52093000D01*
X54377000Y-52113000D01*
X55608067Y-52113000D01*
X55732099Y-51914529D01*
X55717710Y-51829831D01*
X55467215Y-51390846D01*
X55067796Y-51081137D01*
X54905039Y-51036643D01*
X54931233Y-50997440D01*
X55139000Y-50997440D01*
X55374317Y-50953162D01*
X55590441Y-50814090D01*
X55735431Y-50601890D01*
X55786440Y-50350000D01*
X55786440Y-49374529D01*
X68007901Y-49374529D01*
X68131933Y-49573000D01*
X69363000Y-49573000D01*
X69363000Y-48568237D01*
X69617000Y-48568237D01*
X69617000Y-49573000D01*
X70848067Y-49573000D01*
X70972099Y-49374529D01*
X70957710Y-49289831D01*
X70707215Y-48850846D01*
X70307796Y-48541137D01*
X69820260Y-48407855D01*
X69617000Y-48568237D01*
X69363000Y-48568237D01*
X69159740Y-48407855D01*
X68672204Y-48541137D01*
X68272785Y-48850846D01*
X68022290Y-49289831D01*
X68007901Y-49374529D01*
X55786440Y-49374529D01*
X55786440Y-49050000D01*
X55742162Y-48814683D01*
X55603090Y-48598559D01*
X55390890Y-48453569D01*
X55139000Y-48402560D01*
X53361000Y-48402560D01*
X53125683Y-48446838D01*
X52909559Y-48585910D01*
X52764569Y-48798110D01*
X52713560Y-49050000D01*
X52713560Y-50350000D01*
X52757838Y-50585317D01*
X52896910Y-50801441D01*
X52914879Y-50813719D01*
X52441399Y-51287199D01*
X52276652Y-51533761D01*
X52218800Y-51824600D01*
X51370000Y-51824600D01*
X51370000Y-45830000D01*
X107370000Y-45830000D01*
X107370000Y-101830000D01*
G36*
X95723040Y-92246142D02*
X95571958Y-92472252D01*
X95474143Y-92964000D01*
X95571958Y-93455748D01*
X95850511Y-93872632D01*
X96267395Y-94151185D01*
X96683733Y-94234000D01*
X96267395Y-94316815D01*
X95850511Y-94595368D01*
X95571958Y-95012252D01*
X95474143Y-95504000D01*
X95555856Y-95914800D01*
X95515299Y-95941899D01*
X92706565Y-98750633D01*
X92673367Y-98679000D01*
X91313000Y-98679000D01*
X91313000Y-98699000D01*
X91059000Y-98699000D01*
X91059000Y-98679000D01*
X91039000Y-98679000D01*
X91039000Y-98425000D01*
X91059000Y-98425000D01*
X91059000Y-97065164D01*
X91313000Y-97065164D01*
X91313000Y-98425000D01*
X92673367Y-98425000D01*
X92791983Y-98169054D01*
X92523188Y-97583621D01*
X92050818Y-97145615D01*
X91568944Y-96946025D01*
X91313000Y-97065164D01*
X91059000Y-97065164D01*
X90803056Y-96946025D01*
X90321182Y-97145615D01*
X90223602Y-97236097D01*
X90126090Y-97084559D01*
X89913890Y-96939569D01*
X89662000Y-96888560D01*
X87630000Y-96888560D01*
X87394683Y-96932838D01*
X87178559Y-97071910D01*
X87033569Y-97284110D01*
X86982560Y-97536000D01*
X86982560Y-97870766D01*
X86767299Y-98014599D01*
X85822398Y-98959500D01*
X84610372Y-98959500D01*
X84610662Y-98626633D01*
X84468617Y-98282857D01*
X84435500Y-98249682D01*
X84435500Y-97766410D01*
X84574883Y-98103743D01*
X84837673Y-98366992D01*
X85181201Y-98509638D01*
X85553167Y-98509962D01*
X85896943Y-98367917D01*
X86160192Y-98105127D01*
X86302838Y-97761599D01*
X86303162Y-97389633D01*
X86161117Y-97045857D01*
X86048766Y-96933310D01*
X86072418Y-96909700D01*
X86342000Y-96909700D01*
X86632839Y-96851848D01*
X86879401Y-96687101D01*
X87725001Y-95841501D01*
X87889748Y-95594939D01*
X87947600Y-95304100D01*
X87947600Y-92485100D01*
X87889748Y-92194261D01*
X87725001Y-91947699D01*
X86232200Y-90454898D01*
X86232200Y-82755302D01*
X95723040Y-92246142D01*
X95723040Y-92246142D01*
G37*
X95723040Y-92246142D02*
X95571958Y-92472252D01*
X95474143Y-92964000D01*
X95571958Y-93455748D01*
X95850511Y-93872632D01*
X96267395Y-94151185D01*
X96683733Y-94234000D01*
X96267395Y-94316815D01*
X95850511Y-94595368D01*
X95571958Y-95012252D01*
X95474143Y-95504000D01*
X95555856Y-95914800D01*
X95515299Y-95941899D01*
X92706565Y-98750633D01*
X92673367Y-98679000D01*
X91313000Y-98679000D01*
X91313000Y-98699000D01*
X91059000Y-98699000D01*
X91059000Y-98679000D01*
X91039000Y-98679000D01*
X91039000Y-98425000D01*
X91059000Y-98425000D01*
X91059000Y-97065164D01*
X91313000Y-97065164D01*
X91313000Y-98425000D01*
X92673367Y-98425000D01*
X92791983Y-98169054D01*
X92523188Y-97583621D01*
X92050818Y-97145615D01*
X91568944Y-96946025D01*
X91313000Y-97065164D01*
X91059000Y-97065164D01*
X90803056Y-96946025D01*
X90321182Y-97145615D01*
X90223602Y-97236097D01*
X90126090Y-97084559D01*
X89913890Y-96939569D01*
X89662000Y-96888560D01*
X87630000Y-96888560D01*
X87394683Y-96932838D01*
X87178559Y-97071910D01*
X87033569Y-97284110D01*
X86982560Y-97536000D01*
X86982560Y-97870766D01*
X86767299Y-98014599D01*
X85822398Y-98959500D01*
X84610372Y-98959500D01*
X84610662Y-98626633D01*
X84468617Y-98282857D01*
X84435500Y-98249682D01*
X84435500Y-97766410D01*
X84574883Y-98103743D01*
X84837673Y-98366992D01*
X85181201Y-98509638D01*
X85553167Y-98509962D01*
X85896943Y-98367917D01*
X86160192Y-98105127D01*
X86302838Y-97761599D01*
X86303162Y-97389633D01*
X86161117Y-97045857D01*
X86048766Y-96933310D01*
X86072418Y-96909700D01*
X86342000Y-96909700D01*
X86632839Y-96851848D01*
X86879401Y-96687101D01*
X87725001Y-95841501D01*
X87889748Y-95594939D01*
X87947600Y-95304100D01*
X87947600Y-92485100D01*
X87889748Y-92194261D01*
X87725001Y-91947699D01*
X86232200Y-90454898D01*
X86232200Y-82755302D01*
X95723040Y-92246142D01*
G36*
X54377000Y-72433000D02*
X54397000Y-72433000D01*
X54397000Y-72687000D01*
X54377000Y-72687000D01*
X54377000Y-72707000D01*
X54123000Y-72707000D01*
X54123000Y-72687000D01*
X54103000Y-72687000D01*
X54103000Y-72433000D01*
X54123000Y-72433000D01*
X54123000Y-72413000D01*
X54377000Y-72413000D01*
X54377000Y-72433000D01*
X54377000Y-72433000D01*
G37*
X54377000Y-72433000D02*
X54397000Y-72433000D01*
X54397000Y-72687000D01*
X54377000Y-72687000D01*
X54377000Y-72707000D01*
X54123000Y-72707000D01*
X54123000Y-72687000D01*
X54103000Y-72687000D01*
X54103000Y-72433000D01*
X54123000Y-72433000D01*
X54123000Y-72413000D01*
X54377000Y-72413000D01*
X54377000Y-72433000D01*
G36*
X69617000Y-59733000D02*
X69637000Y-59733000D01*
X69637000Y-59987000D01*
X69617000Y-59987000D01*
X69617000Y-60991763D01*
X69792195Y-61130000D01*
X69617000Y-61268237D01*
X69617000Y-62273000D01*
X69637000Y-62273000D01*
X69637000Y-62527000D01*
X69617000Y-62527000D01*
X69617000Y-62547000D01*
X69363000Y-62547000D01*
X69363000Y-62527000D01*
X68131933Y-62527000D01*
X68007901Y-62725471D01*
X68022290Y-62810169D01*
X68272785Y-63249154D01*
X68672204Y-63558863D01*
X68834961Y-63603357D01*
X68787852Y-63673861D01*
X68773908Y-63743961D01*
X68729395Y-63752815D01*
X68312511Y-64031368D01*
X68033958Y-64448252D01*
X67936143Y-64940000D01*
X68033958Y-65431748D01*
X68312511Y-65848632D01*
X68335563Y-65864035D01*
X67067800Y-67131798D01*
X67067800Y-61202502D01*
X68019073Y-60251230D01*
X68022290Y-60270169D01*
X68272785Y-60709154D01*
X68672204Y-61018863D01*
X69078735Y-61130000D01*
X68672204Y-61241137D01*
X68272785Y-61550846D01*
X68022290Y-61989831D01*
X68007901Y-62074529D01*
X68131933Y-62273000D01*
X69363000Y-62273000D01*
X69363000Y-61268237D01*
X69187805Y-61130000D01*
X69363000Y-60991763D01*
X69363000Y-59987000D01*
X69343000Y-59987000D01*
X69343000Y-59733000D01*
X69363000Y-59733000D01*
X69363000Y-59713000D01*
X69617000Y-59713000D01*
X69617000Y-59733000D01*
X69617000Y-59733000D01*
G37*
X69617000Y-59733000D02*
X69637000Y-59733000D01*
X69637000Y-59987000D01*
X69617000Y-59987000D01*
X69617000Y-60991763D01*
X69792195Y-61130000D01*
X69617000Y-61268237D01*
X69617000Y-62273000D01*
X69637000Y-62273000D01*
X69637000Y-62527000D01*
X69617000Y-62527000D01*
X69617000Y-62547000D01*
X69363000Y-62547000D01*
X69363000Y-62527000D01*
X68131933Y-62527000D01*
X68007901Y-62725471D01*
X68022290Y-62810169D01*
X68272785Y-63249154D01*
X68672204Y-63558863D01*
X68834961Y-63603357D01*
X68787852Y-63673861D01*
X68773908Y-63743961D01*
X68729395Y-63752815D01*
X68312511Y-64031368D01*
X68033958Y-64448252D01*
X67936143Y-64940000D01*
X68033958Y-65431748D01*
X68312511Y-65848632D01*
X68335563Y-65864035D01*
X67067800Y-67131798D01*
X67067800Y-61202502D01*
X68019073Y-60251230D01*
X68022290Y-60270169D01*
X68272785Y-60709154D01*
X68672204Y-61018863D01*
X69078735Y-61130000D01*
X68672204Y-61241137D01*
X68272785Y-61550846D01*
X68022290Y-61989831D01*
X68007901Y-62074529D01*
X68131933Y-62273000D01*
X69363000Y-62273000D01*
X69363000Y-61268237D01*
X69187805Y-61130000D01*
X69363000Y-60991763D01*
X69363000Y-59987000D01*
X69343000Y-59987000D01*
X69343000Y-59733000D01*
X69363000Y-59733000D01*
X69363000Y-59713000D01*
X69617000Y-59713000D01*
X69617000Y-59733000D01*
M02*
