M48
INCH,TZ
T1C0.016
T2C0.032
T3C0.035
T4C0.040
%
G90
G05
T1
X2.5692Y-2.7798
X2.6352Y-3.614
X2.6468Y-3.709
X2.701Y-2.3067
X2.8927Y-3.2884
X2.9139Y-3.1956
X2.9141Y-3.0444
X2.964Y-2.821
X2.9759Y-3.1639
X3.0046Y-3.6747
X3.0422Y-3.8531
X3.0467Y-3.6818
X3.0507Y-3.7956
X3.0676Y-3.8258
X3.0686Y-3.1502
X3.0708Y-3.7662
X3.0986Y-3.8997
X3.1007Y-2.5966
X3.123Y-3.1845
X3.1526Y-3.7321
X3.1813Y-3.8817
X3.2943Y-3.8902
X3.3609Y-3.8415
X3.3665Y-3.7854
X3.3978Y-2.7612
X3.408Y-3.7408
X3.4408Y-2.7375
X3.453Y-2.9219
X3.7875Y-2.9598
T2
X3.0583Y-1.9421
X3.0583Y-2.0421
X3.0583Y-2.1421
X3.0583Y-2.2421
X3.0583Y-2.3421
X3.0583Y-2.4421
X3.0583Y-2.5421
X3.0583Y-2.6421
X3.0583Y-2.7421
X3.0583Y-2.8421
X3.0583Y-2.9421
X3.0583Y-3.0421
X4.0083Y-1.9421
X4.0083Y-2.0421
X4.0083Y-2.1421
X4.0083Y-2.2421
X4.0083Y-2.3421
X4.0083Y-2.4421
X4.0083Y-2.5421
X4.0083Y-2.6421
X4.0083Y-2.7421
X4.0083Y-2.8421
X4.0083Y-2.9421
X4.0083Y-3.0421
T3
X2.1358Y-1.9567
X2.1358Y-2.0567
X2.1358Y-2.1567
X2.1358Y-2.2567
X2.1358Y-2.3567
X2.1358Y-2.4567
X2.1358Y-2.5567
X2.1358Y-2.6567
X2.1358Y-2.7567
X2.1358Y-2.8567
X2.1358Y-2.9567
X2.1358Y-3.0567
X2.1358Y-3.1567
X2.1358Y-3.2567
X2.1358Y-3.3567
X2.1358Y-3.4567
X2.1358Y-3.5567
X2.1358Y-3.6567
X2.1358Y-3.7567
X2.1358Y-3.8567
X2.7358Y-1.9567
X2.7358Y-2.0567
X2.7358Y-2.1567
X2.7358Y-2.2567
X2.7358Y-2.3567
X2.7358Y-2.4567
X2.7358Y-2.5567
X2.7358Y-2.6567
X2.7358Y-2.7567
X2.7358Y-2.8567
X2.7358Y-2.9567
X2.7358Y-3.0567
X2.7358Y-3.1567
X2.7358Y-3.2567
X2.7358Y-3.3567
X2.7358Y-3.4567
X2.7358Y-3.5567
X2.7358Y-3.6567
X2.7358Y-3.7567
X2.7358Y-3.8567
X3.82Y-3.56
X3.82Y-3.66
X3.82Y-3.76
X3.82Y-3.86
X4.12Y-3.56
X4.12Y-3.66
X4.12Y-3.76
X4.12Y-3.86
T4
X3.49Y-3.88
X3.59Y-3.88
T0
M30
